<svg width="178" height="178" viewBox="0 0 178 178" fill="none" xmlns="http://www.w3.org/2000/svg">
<g clip-path="url(#clip0_206_1346)">
<path fill-rule="evenodd" clip-rule="evenodd" d="M110.029 160.715C114.245 146.3 113.124 138.255 108.998 133.414C104.874 128.569 97.9908 127.069 91.1054 125.573C86.3399 124.565 81.4773 123.536 77.5469 121.627C73.4445 119.637 70.2411 116.632 68.8251 111.618C68.5152 110.431 68.5572 108.813 69.0811 106.92C69.6916 104.295 71.0085 100.997 72.8729 97.3071C79.7465 83.1982 93.5157 62.6565 98.9142 48.4605C100.198 45.2212 100.977 42.2994 101.127 39.9113C101.222 37.8132 100.854 36.1512 99.6911 35.1251C98.7469 34.2903 97.3272 33.9121 95.267 33.8975C91.7858 33.893 86.9372 35.1546 80.1985 37.836C74.301 40.1841 68.6734 43.4028 62.8026 45.8966C53.6272 49.8092 44.1521 53.675 34.8376 55.7121C34.2274 55.8289 33.6695 55.4678 33.5605 54.8894C33.3694 54.2634 33.7917 53.7073 34.4019 53.5905C43.5896 51.5852 52.9311 47.7637 61.9692 43.9015C67.7638 41.3497 73.4801 38.1648 79.384 35.8053C86.4335 32.9592 91.6021 31.7096 95.2927 31.7288C97.9305 31.6844 99.8432 32.3476 101.157 33.4928C102.465 34.6472 103.233 36.3716 103.338 38.501C103.486 41.3244 102.599 45.0188 100.973 49.251C95.5482 63.4933 81.7345 84.112 74.8336 98.2694C73.0623 101.794 71.8237 104.954 71.1889 107.429C70.8002 108.89 70.6589 110.105 70.987 111.067C72.1526 115.367 74.9497 117.933 78.5375 119.678C82.298 121.502 86.9804 122.465 91.6366 123.474C98.9256 125.026 106.29 126.83 110.668 131.998C115.044 137.169 116.68 145.844 112.089 161.309C111.965 161.915 111.346 162.242 110.783 162.081C110.221 161.92 109.822 161.275 110.029 160.715Z" fill="white"/>
<path fill-rule="evenodd" clip-rule="evenodd" d="M113.193 161.522C113.351 161.435 113.721 161.167 113.972 160.914C115.289 159.739 117.057 157.761 117.596 157.192C122.719 152.358 127.907 146.638 131.448 140.363C131.745 139.836 132.399 139.644 132.894 139.924C133.471 140.251 133.643 140.912 133.346 141.438C129.702 147.895 124.324 153.759 119.188 158.81C118.561 159.341 116.773 161.353 115.444 162.551C114.979 162.989 114.565 163.335 114.244 163.518C113.951 163.652 113.698 163.715 113.477 163.72C113.004 163.787 112.438 163.631 111.952 163.335C111.385 162.99 110.832 162.427 110.354 161.73C109.308 160.304 108.311 158.214 107.507 156.552C107.06 155.607 106.653 154.785 106.317 154.415C103.431 151.234 98.8429 150.299 93.5718 152.694C93.0028 152.931 92.3726 152.696 92.1355 152.152C91.8985 151.607 92.1532 150.963 92.6402 150.679C99.03 147.844 104.421 149.095 107.917 152.932C108.798 153.878 110.049 157.062 111.435 159.428C111.902 160.144 112.321 160.753 112.738 161.171C112.881 161.305 112.948 161.379 113.111 161.476C113.109 161.478 113.19 161.528 113.193 161.522Z" fill="white"/>
</g>
<defs>
<clipPath id="clip0_206_1346">
<rect width="130" height="130" fill="white" transform="matrix(-0.870892 -0.491474 -0.491474 0.870892 177.107 63.8916)"/>
</clipPath>
</defs>
</svg>
